HIERARCHY
ROOT Hips
{
	OFFSET 0.000000 71.427986 0.000000
	CHANNELS 6 Xposition Yposition Zposition Xrotation Yrotation Zrotation
	JOINT Pelvis
	{
		OFFSET 0.000000 0.000000 0.000000
		CHANNELS 3 Xrotation Yrotation Zrotation
		JOINT LeftUpLeg
		{
			OFFSET 6.797100 -2.508499 -1.318700
			CHANNELS 3 Xrotation Yrotation Zrotation
			JOINT LeftLeg
			{
				OFFSET 0.069008 -29.241863 0.690200
				CHANNELS 3 Xrotation Yrotation Zrotation
				JOINT LeftFoot
				{
					OFFSET -0.069008 -29.568123 -0.266800
					CHANNELS 3 Xrotation Yrotation Zrotation
					JOINT LeftToeBase
					{
						OFFSET 3.145500 -8.631000 16.059900
						CHANNELS 3 Xrotation Yrotation Zrotation
						End Site
						{
							OFFSET 0.000000 18.501587 0.000000
						}
					}
				}
			}
			JOINT Left_ShortSleeve
			{
				OFFSET 0.265923 -10.480953 1.153800
				CHANNELS 3 Xrotation Yrotation Zrotation
				End Site
				{
					OFFSET 1.725763 19.823879 0.000000
				}
			}
		}
		JOINT RightUpLeg
		{
			OFFSET -6.797100 -2.508499 -1.318700
			CHANNELS 3 Xrotation Yrotation Zrotation
			JOINT RightLeg
			{
				OFFSET -0.082453 -29.241932 0.688000
				CHANNELS 3 Xrotation Yrotation Zrotation
				JOINT RightFoot
				{
					OFFSET 0.082453 -29.568058 -0.264600
					CHANNELS 3 Xrotation Yrotation Zrotation
					JOINT RightToeBase
					{
						OFFSET -3.115300 -8.682800 16.113400
						CHANNELS 3 Xrotation Yrotation Zrotation
						End Site
						{
							OFFSET 0.000000 18.567114 0.000000
						}
					}
				}
			}
			JOINT Right_ShortSleeve
			{
				OFFSET -0.265923 -10.480953 1.153800
				CHANNELS 3 Xrotation Yrotation Zrotation
				End Site
				{
					OFFSET -1.725766 19.823910 0.000000
				}
			}
		}
	}
	JOINT Spine
	{
		OFFSET 0.000000 13.368103 0.470500
		CHANNELS 3 Xrotation Yrotation Zrotation
		JOINT Spine1
		{
			OFFSET 0.147000 13.837402 0.538800
			CHANNELS 3 Xrotation Yrotation Zrotation
			JOINT Spine2
			{
				OFFSET 0.168000 16.242897 -1.435500
				CHANNELS 3 Xrotation Yrotation Zrotation
				JOINT Neck
				{
					OFFSET 0.217200 18.631500 -1.679100
					CHANNELS 3 Xrotation Yrotation Zrotation
					JOINT Head
					{
						OFFSET 0.000000 6.599396 1.385900
						CHANNELS 3 Xrotation Yrotation Zrotation
						JOINT Hat
						{
							OFFSET -0.532200 27.220596 -10.096100
							CHANNELS 3 Xrotation Yrotation Zrotation
							End Site
							{
								OFFSET 0.000000 22.029861 0.000000
							}
						}
						JOINT HairD
						{
							OFFSET -10.777400 17.437393 -1.325900
							CHANNELS 3 Xrotation Yrotation Zrotation
							JOINT HairD1
							{
								OFFSET -3.290299 -11.051193 1.062200
								CHANNELS 3 Xrotation Yrotation Zrotation
								End Site
								{
									OFFSET 0.000000 11.579437 0.000000
								}
							}
						}
						JOINT HairB
						{
							OFFSET -10.777400 17.437393 1.467900
							CHANNELS 3 Xrotation Yrotation Zrotation
							JOINT HairB1
							{
								OFFSET -1.561200 -12.956299 3.590200
								CHANNELS 3 Xrotation Yrotation Zrotation
								End Site
								{
									OFFSET 0.000000 13.534866 0.000000
								}
							}
						}
						JOINT HairA
						{
							OFFSET 9.713100 17.437393 1.467900
							CHANNELS 3 Xrotation Yrotation Zrotation
							JOINT HairA1
							{
								OFFSET 1.561200 -12.956299 3.590200
								CHANNELS 3 Xrotation Yrotation Zrotation
								End Site
								{
									OFFSET 0.000000 13.534866 0.000000
								}
							}
						}
						JOINT HairC
						{
							OFFSET 9.713100 17.437393 -1.325900
							CHANNELS 3 Xrotation Yrotation Zrotation
							JOINT HairC1
							{
								OFFSET 3.290300 -11.051193 1.062200
								CHANNELS 3 Xrotation Yrotation Zrotation
								End Site
								{
									OFFSET 0.000000 11.579437 0.000000
								}
							}
						}
					}
				}
				JOINT LeftShoulder
				{
					OFFSET 5.101800 15.108002 -2.763700
					CHANNELS 3 Xrotation Yrotation Zrotation
					JOINT LeftArm
					{
						OFFSET 9.825497 2.506317 -1.597400
						CHANNELS 3 Xrotation Yrotation Zrotation
						JOINT LeftForeArm
						{
							OFFSET 21.966244 0.000000 0.000000
							CHANNELS 3 Xrotation Yrotation Zrotation
							JOINT LeftHand
							{
								OFFSET 33.879036 0.000000 0.000000
								CHANNELS 3 Xrotation Yrotation Zrotation
								JOINT LeftHandThumb1
								{
									OFFSET 6.715286 -2.359680 3.363841
									CHANNELS 3 Xrotation Yrotation Zrotation
									JOINT LeftHandThumb2
									{
										OFFSET 2.507072 -1.447464 1.447461
										CHANNELS 3 Xrotation Yrotation Zrotation
										JOINT LeftHandThumb3
										{
											OFFSET 2.898338 -1.673355 1.673357
											CHANNELS 3 Xrotation Yrotation Zrotation
											End Site
											{
												OFFSET -0.295959 3.727692 -0.131651
											}
										}
									}
								}
								JOINT LeftHandIndex1
								{
									OFFSET 14.190811 -0.254547 3.840278
									CHANNELS 3 Xrotation Yrotation Zrotation
									JOINT LeftHandIndex2
									{
										OFFSET 3.551727 0.000000 -0.000000
										CHANNELS 3 Xrotation Yrotation Zrotation
										JOINT LeftHandIndex3
										{
											OFFSET 2.894196 0.000000 0.000000
											CHANNELS 3 Xrotation Yrotation Zrotation
											End Site
											{
												OFFSET -1.000603 2.690872 0.366626
											}
										}
									}
								}
								JOINT LeftHandMiddle1
								{
									OFFSET 13.776489 0.000000 0.000000
									CHANNELS 3 Xrotation Yrotation Zrotation
									JOINT LeftHandMiddle2
									{
										OFFSET 3.438232 0.000000 0.000000
										CHANNELS 3 Xrotation Yrotation Zrotation
										JOINT LeftHandMiddle3
										{
											OFFSET 3.691551 0.000000 0.000000
											CHANNELS 3 Xrotation Yrotation Zrotation
											End Site
											{
												OFFSET -1.082298 3.499527 0.457670
											}
										}
									}
								}
								JOINT LeftHandRing1
								{
									OFFSET 13.966164 -0.268127 -3.067488
									CHANNELS 3 Xrotation Yrotation Zrotation
									JOINT LeftHandRing2
									{
										OFFSET 3.162567 0.000000 0.000000
										CHANNELS 3 Xrotation Yrotation Zrotation
										JOINT LeftHandRing3
										{
											OFFSET 3.324348 0.000000 0.000000
											CHANNELS 3 Xrotation Yrotation Zrotation
											End Site
											{
												OFFSET -0.861900 3.184998 0.405154
											}
										}
									}
								}
								JOINT LeftHandPinky1
								{
									OFFSET 13.131393 -0.168503 -5.746925
									CHANNELS 3 Xrotation Yrotation Zrotation
									JOINT LeftHandPinky2
									{
										OFFSET 2.849182 0.000000 0.000000
										CHANNELS 3 Xrotation Yrotation Zrotation
										JOINT LeftHandPinky3
										{
											OFFSET 2.805038 0.000000 0.000000
											CHANNELS 3 Xrotation Yrotation Zrotation
											End Site
											{
												OFFSET -0.882500 2.642609 0.325652
											}
										}
									}
								}
							}
							JOINT Left_Sleeve
							{
								OFFSET 6.592125 -0.646545 0.805568
								CHANNELS 3 Xrotation Yrotation Zrotation
								End Site
								{
									OFFSET -0.000179 20.275787 -0.000000
								}
							}
						}
					}
				}
				JOINT RightShoulder
				{
					OFFSET -5.731700 15.108002 -2.763700
					CHANNELS 3 Xrotation Yrotation Zrotation
					JOINT RightArm
					{
						OFFSET -9.825497 2.506317 -1.597400
						CHANNELS 3 Xrotation Yrotation Zrotation
						JOINT RightForeArm
						{
							OFFSET -21.966242 0.000000 0.000000
							CHANNELS 3 Xrotation Yrotation Zrotation
							JOINT RightHand
							{
								OFFSET -33.879032 0.000000 0.000000
								CHANNELS 3 Xrotation Yrotation Zrotation
								JOINT RightHandThumb1
								{
									OFFSET -6.715286 -2.359680 3.363841
									CHANNELS 3 Xrotation Yrotation Zrotation
									JOINT RightHandThumb2
									{
										OFFSET -2.507072 -1.447464 1.447461
										CHANNELS 3 Xrotation Yrotation Zrotation
										JOINT RightHandThumb3
										{
											OFFSET -2.898338 -1.673355 1.673357
											CHANNELS 3 Xrotation Yrotation Zrotation
											End Site
											{
												OFFSET 0.295959 3.727692 -0.131651
											}
										}
									}
								}
								JOINT RightHandIndex1
								{
									OFFSET -14.190811 -0.254547 3.840278
									CHANNELS 3 Xrotation Yrotation Zrotation
									JOINT RightHandIndex2
									{
										OFFSET -3.551727 0.000000 -0.000000
										CHANNELS 3 Xrotation Yrotation Zrotation
										JOINT RightHandIndex3
										{
											OFFSET -2.894196 0.000000 0.000000
											CHANNELS 3 Xrotation Yrotation Zrotation
											End Site
											{
												OFFSET 1.000603 2.690872 0.366626
											}
										}
									}
								}
								JOINT RightHandMiddle1
								{
									OFFSET -13.776489 0.000000 0.000000
									CHANNELS 3 Xrotation Yrotation Zrotation
									JOINT RightHandMiddle2
									{
										OFFSET -3.438232 0.000000 0.000000
										CHANNELS 3 Xrotation Yrotation Zrotation
										JOINT RightHandMiddle3
										{
											OFFSET -3.691551 0.000000 0.000000
											CHANNELS 3 Xrotation Yrotation Zrotation
											End Site
											{
												OFFSET 1.082298 3.499527 0.457670
											}
										}
									}
								}
								JOINT RightHandRing1
								{
									OFFSET -13.966164 -0.268127 -3.067488
									CHANNELS 3 Xrotation Yrotation Zrotation
									JOINT RightHandRing2
									{
										OFFSET -3.162567 0.000000 0.000000
										CHANNELS 3 Xrotation Yrotation Zrotation
										JOINT RightHandRing3
										{
											OFFSET -3.324348 0.000000 0.000000
											CHANNELS 3 Xrotation Yrotation Zrotation
											End Site
											{
												OFFSET 0.861900 3.184998 0.405154
											}
										}
									}
								}
								JOINT RightHandPinky1
								{
									OFFSET -13.131393 -0.168503 -5.746925
									CHANNELS 3 Xrotation Yrotation Zrotation
									JOINT RightHandPinky2
									{
										OFFSET -2.849182 0.000000 0.000000
										CHANNELS 3 Xrotation Yrotation Zrotation
										JOINT RightHandPinky3
										{
											OFFSET -2.805038 0.000000 0.000000
											CHANNELS 3 Xrotation Yrotation Zrotation
											End Site
											{
												OFFSET 0.882500 2.642609 0.325652
											}
										}
									}
								}
							}
							JOINT Right_Sleeve
							{
								OFFSET -6.592125 -0.646545 0.805568
								CHANNELS 3 Xrotation Yrotation Zrotation
								End Site
								{
									OFFSET 0.000179 20.275787 -0.000000
								}
							}
						}
					}
				}
				JOINT Bind_Right_JacketString
				{
					OFFSET -3.534800 11.969597 7.200700
					CHANNELS 3 Xrotation Yrotation Zrotation
					JOINT Bind_Right_JacketString1
					{
						OFFSET -0.319900 -6.102600 2.794100
						CHANNELS 3 Xrotation Yrotation Zrotation
						End Site
						{
							OFFSET 0.000000 6.719452 0.000000
						}
					}
				}
				JOINT Bind_Left_JacketString
				{
					OFFSET 2.904800 11.969597 7.200700
					CHANNELS 3 Xrotation Yrotation Zrotation
					JOINT Bind_Left_JacketString1
					{
						OFFSET 0.364800 -5.904503 3.186800
						CHANNELS 3 Xrotation Yrotation Zrotation
						End Site
						{
							OFFSET 0.000000 6.719513 0.000000
						}
					}
				}
				JOINT HairE
				{
					OFFSET 5.915200 17.612701 -11.592200
					CHANNELS 3 Xrotation Yrotation Zrotation
					JOINT HairE1
					{
						OFFSET 0.289200 -7.171898 -1.284500
						CHANNELS 3 Xrotation Yrotation Zrotation
						End Site
						{
							OFFSET 0.000000 7.291756 0.000000
						}
					}
				}
				JOINT HairF
				{
					OFFSET -0.864800 17.612701 -11.592200
					CHANNELS 3 Xrotation Yrotation Zrotation
					JOINT HairF1
					{
						OFFSET 0.000000 -14.087097 -2.127501
						CHANNELS 3 Xrotation Yrotation Zrotation
						End Site
						{
							OFFSET 0.000000 14.246841 0.000000
						}
					}
				}
				JOINT HairG
				{
					OFFSET -8.087700 17.612701 -11.592200
					CHANNELS 3 Xrotation Yrotation Zrotation
					JOINT HairG1
					{
						OFFSET -0.293600 -6.081398 -0.910100
						CHANNELS 3 Xrotation Yrotation Zrotation
						End Site
						{
							OFFSET 0.000000 6.156120 0.000000
						}
					}
				}
			}
		}
	}
	JOINT Pouch
	{
		OFFSET 0.000000 4.394501 10.847300
		CHANNELS 3 Xrotation Yrotation Zrotation
		End Site
		{
			OFFSET 0.000000 21.880577 0.000000
		}
	}
	JOINT Bag
	{
		OFFSET -13.229000 4.813004 -0.593300
		CHANNELS 3 Xrotation Yrotation Zrotation
		End Site
		{
			OFFSET 0.000000 21.880577 0.000000
		}
	}
	JOINT OccupyGuyFacialAnim_Joint
	{
		OFFSET 1.000000 -70.206398 -1.655000
		CHANNELS 3 Xrotation Yrotation Zrotation
		End Site
		{
			OFFSET 0.000000 21.880577 0.000000
		}
	}
}
MOTION
Frames: 5
Frame Time: 0.033333
0.035072 59.811974 1.164070 8.179566 0.856318 -2.744243 -0.000000 0.000000 0.000000 -54.402983 0.491166 3.343373 81.675989 2.588448 0.297994 -22.302106 0.608262 -1.480332 -0.000000 0.000000 -0.000000 0.000002 -0.000000 0.000001 -57.389824 -0.360944 -0.328190 81.205355 -2.866372 0.089724 -15.009575 -0.799947 4.077539 0.000000 -0.000000 0.000000 0.000002 0.000000 0.000000 18.108732 -0.506188 2.809676 13.963754 -0.451227 2.090800 13.997952 -0.396450 2.066193 -4.834815 1.374812 -4.548958 -2.114609 0.757691 -0.444803 0.000002 -0.000000 0.000000 0.000002 -0.000000 0.000000 0.000002 -0.000000 0.000000 0.000002 -0.000000 0.000000 0.000001 -0.000000 0.000000 0.000002 -0.000000 0.000000 0.000001 -0.000000 0.000000 0.000002 -0.000000 0.000000 0.000002 -0.000000 0.000000 7.886708 -5.319801 4.276170 -38.581129 -4.133456 -67.403312 0.000003 -27.527693 0.000002 19.024701 -18.944969 32.270458 2.057130 -10.276234 8.833208 -0.390957 4.215135 0.824658 0.000001 0.000002 0.000001 1.825248 -4.714744 8.898534 0.339959 2.693555 -19.195699 -0.000001 0.000002 0.000002 0.759927 0.880448 6.248766 0.422013 3.007479 -22.338296 -0.000002 -0.000001 0.000004 0.713225 13.833878 -5.349847 0.550422 2.284300 -20.288534 0.000001 0.000003 -0.000002 2.600676 23.675256 -18.353137 0.178341 1.817112 -19.979992 -0.000002 -0.000000 0.000003 -0.000000 -0.000000 0.000001 9.177967 -3.467654 3.793276 -34.869096 -6.538600 63.168929 -0.000004 37.022747 0.000013 22.437950 9.180110 -33.687401 -12.972874 8.312925 7.687539 4.027840 -3.973106 -3.199688 0.000001 0.000002 -0.000003 4.564005 13.667564 -12.413959 0.080128 -1.635967 8.392637 -0.000002 0.000001 0.000001 0.175651 -1.354285 1.586666 0.062597 -1.514912 6.928780 -0.000000 0.000001 0.000001 0.478924 -14.219671 3.629137 0.439487 -2.041801 17.619250 0.000001 0.000001 0.000002 0.833185 -23.607150 12.594528 0.013569 -0.945152 11.162489 -0.000003 0.000001 0.000001 -0.000000 0.000000 -0.000004 0.000001 -0.000000 0.000000 0.000003 -0.000000 0.000000 0.000001 -0.000000 0.000000 0.000001 -0.000000 0.000000 0.000001 -0.000000 0.000000 0.000003 -0.000000 0.000000 0.000001 -0.000000 0.000000 0.000001 -0.000000 0.000000 0.000001 -0.000000 0.000000 0.000003 -0.000000 0.000000 -0.000000 0.000000 0.000000 -0.000000 0.000000 0.000000 -0.000000 0.000000 0.000000 
-0.165809 59.777725 1.510576 6.640821 1.012788 -2.708596 -0.000000 0.000000 0.000000 -52.762112 0.587568 3.760604 82.230942 2.001524 0.341808 -22.600872 0.624675 -1.457243 -0.000000 -0.000000 0.000000 -0.000001 -0.000001 -0.000000 -55.940240 -0.308559 0.268749 81.944286 -3.729743 -0.280394 -14.897228 -0.901941 4.766010 0.000002 -0.000000 0.000000 -0.000002 0.000000 -0.000000 17.841605 -0.542350 2.603557 13.745870 -0.467978 1.923562 13.783554 -0.409174 1.898444 -4.424377 1.290129 -4.374041 -0.783928 0.546591 -0.287555 -0.000001 0.000000 0.000000 -0.000001 0.000000 0.000000 -0.000001 0.000000 0.000000 -0.000001 0.000000 -0.000000 -0.000001 -0.000000 0.000000 -0.000001 0.000000 -0.000000 -0.000001 -0.000000 0.000000 -0.000001 0.000000 0.000000 -0.000001 0.000000 0.000000 7.844572 -4.391494 4.672672 -37.850255 -3.147202 -67.551124 -0.000002 -28.773948 0.000006 19.060422 -16.519880 30.984972 2.089795 -9.587379 8.108935 -0.233163 4.774445 0.775681 0.000000 0.000001 0.000001 1.755689 -4.580656 8.351471 0.352767 2.729897 -19.577603 0.000001 0.000001 -0.000000 0.704202 0.980139 5.614486 0.437106 3.045820 -22.751094 0.000000 -0.000001 -0.000001 0.786615 13.786587 -5.894405 0.559874 2.303630 -20.504061 0.000001 -0.000000 -0.000004 2.706382 23.620580 -18.952824 0.184575 1.839975 -20.215412 -0.000003 0.000000 -0.000001 0.000000 -0.000000 -0.000001 9.374821 -3.646346 4.176027 -33.412387 -6.189592 62.764651 0.000003 36.674831 0.000013 22.878972 9.590290 -34.746733 -12.876752 8.780891 6.849808 4.559806 -5.150879 -3.194149 -0.000001 -0.000001 -0.000002 4.304100 13.860925 -11.579528 0.080635 -1.639430 8.427285 0.000003 -0.000001 0.000000 0.138626 -1.339056 2.084573 0.062586 -1.514818 6.927879 0.000002 -0.000000 -0.000003 0.556658 -14.334144 4.122044 0.446284 -2.057568 17.791031 0.000001 -0.000002 -0.000002 0.977637 -23.688908 12.993986 0.014637 -0.954753 11.258340 -0.000001 0.000001 0.000002 -0.000000 -0.000000 0.000001 -0.000000 0.000000 -0.000000 -0.000004 -0.000000 0.000000 -0.000000 0.000000 -0.000000 -0.000000 0.000000 -0.000000 -0.000000 0.000000 -0.000000 -0.000004 -0.000000 -0.000000 -0.000000 0.000000 -0.000000 -0.000000 0.000000 -0.000000 -0.000000 0.000000 -0.000000 -0.000004 -0.000000 -0.000000 -0.000000 0.000000 0.000000 -0.000000 0.000000 0.000000 -0.000000 0.000000 0.000000 
-0.232353 59.817032 1.913879 4.991109 1.142729 -2.489647 0.000000 -0.000000 -0.000000 -50.785308 0.956689 4.042315 82.537488 1.576826 0.259812 -22.867304 0.597547 -1.298190 0.000001 -0.000000 0.000000 -0.000003 0.000001 -0.000000 -54.194515 -0.135895 0.683430 82.557596 -4.759013 -0.676521 -15.017762 -0.983035 5.251121 -0.000002 -0.000000 -0.000000 0.000001 0.000000 0.000000 17.506562 -0.437335 2.555359 13.473241 -0.364562 1.877862 13.494976 -0.308878 1.854775 -3.910369 1.145345 -4.155916 0.520693 0.168346 -0.573897 0.000001 -0.000000 0.000000 0.000001 -0.000000 0.000000 0.000001 -0.000000 0.000000 0.000001 -0.000000 0.000000 0.000001 0.000000 -0.000000 0.000001 -0.000000 0.000000 0.000001 0.000000 -0.000000 0.000001 -0.000000 0.000000 0.000001 -0.000000 0.000000 7.872492 -3.038039 4.658185 -35.605319 -1.103552 -68.234259 -0.000003 -30.152809 -0.000016 18.553070 -14.789460 28.864595 1.978783 -9.251616 7.279837 -0.123517 5.158291 0.741155 0.000003 -0.000001 0.000000 1.765377 -4.458053 8.048265 0.373607 2.787455 -20.184432 -0.000000 0.000001 0.000003 0.615153 1.151396 4.567911 0.467215 3.120079 -23.553761 -0.000000 0.000000 0.000002 0.906937 13.763297 -6.775966 0.587409 2.359007 -21.123130 -0.000002 -0.000000 -0.000003 2.827115 23.561318 -20.020256 0.202614 1.904252 -20.878155 0.000003 0.000001 0.000003 -0.000001 0.000001 -0.000003 9.409958 -3.665265 3.992685 -32.985634 -5.883292 62.110790 -0.000006 35.769499 0.000005 21.716803 10.691592 -36.545538 -13.037148 9.355821 6.358174 5.040850 -6.210519 -3.181070 -0.000001 -0.000001 0.000002 3.775166 13.992797 -9.907805 0.080665 -1.639623 8.429205 0.000001 0.000002 0.000001 0.022305 -1.467185 3.689746 0.062584 -1.514767 6.927305 0.000002 0.000003 0.000001 0.803938 -14.367119 5.756721 0.457358 -2.082953 18.068326 -0.000000 0.000001 -0.000002 1.568502 -23.754279 14.874253 0.020004 -1.001016 11.720550 0.000001 0.000001 0.000002 0.000000 0.000000 -0.000002 0.000001 -0.000000 0.000000 -0.000002 -0.000000 0.000000 0.000001 -0.000000 0.000000 0.000001 -0.000000 0.000000 0.000001 -0.000000 0.000000 -0.000002 -0.000000 -0.000000 0.000001 -0.000000 0.000000 0.000001 -0.000000 0.000000 0.000001 -0.000000 0.000000 -0.000002 -0.000000 -0.000000 0.000000 -0.000000 -0.000000 0.000000 -0.000000 -0.000000 0.000000 -0.000000 -0.000000 
-0.177091 59.913712 2.340472 3.494195 1.281131 -2.045793 0.000000 0.000000 0.000000 -48.765194 1.508501 4.023360 82.583708 1.139097 0.104238 -23.073182 0.525930 -0.962114 0.000000 0.000000 -0.000000 -0.000002 0.000000 0.000000 -52.402301 0.126695 0.731587 82.966970 -5.678618 -1.089808 -15.341870 -1.067771 5.657277 0.000000 -0.000000 -0.000000 0.000002 0.000000 -0.000001 17.097133 -0.188355 2.637568 13.147956 -0.163111 1.954798 13.151754 -0.119657 1.936786 -3.387212 0.977595 -3.986682 1.628833 -0.352083 -1.103866 0.000000 0.000000 0.000000 0.000000 0.000000 0.000000 0.000000 0.000000 0.000000 0.000000 0.000000 0.000000 0.000000 -0.000000 0.000000 0.000000 0.000000 0.000000 0.000000 -0.000000 0.000000 0.000000 0.000000 0.000000 0.000000 0.000000 0.000000 7.960979 -1.436973 4.261290 -32.109795 1.475183 -69.213572 0.000007 -31.716537 0.000008 17.326633 -13.737297 26.835228 1.807333 -9.268809 6.696498 -0.099933 5.240206 0.733684 0.000001 -0.000002 0.000002 1.808879 -4.346441 7.782775 0.402969 2.865517 -21.010903 0.000001 -0.000000 0.000001 0.497251 1.369202 3.063063 0.513532 3.228801 -24.737444 0.000003 0.000001 -0.000001 1.086745 13.781844 -8.076331 0.633926 2.449240 -22.139607 -0.000004 0.000000 -0.000003 2.995277 23.542392 -21.572931 0.232019 2.003360 -21.904905 -0.000001 -0.000001 0.000003 -0.000000 -0.000000 -0.000000 9.319407 -3.447359 3.411755 -33.974642 -5.610128 61.183311 0.000002 34.761927 -0.000002 19.209991 12.225598 -38.464822 -13.307324 9.877195 6.159712 5.432692 -7.068344 -3.165269 0.000002 -0.000001 -0.000000 3.015930 13.937685 -7.612207 0.080718 -1.639985 8.432748 -0.000001 0.000001 0.000000 -0.149004 -1.764854 6.234895 0.062587 -1.514800 6.927687 0.000001 0.000001 0.000001 1.172696 -14.360054 8.256207 0.468358 -2.107871 18.340830 0.000000 0.000000 -0.000003 2.559680 -23.775890 18.083453 0.027927 -1.064061 12.351147 -0.000000 0.000002 -0.000003 0.000000 -0.000001 0.000001 -0.000003 0.000000 0.000000 0.000001 -0.000000 -0.000000 -0.000003 0.000000 0.000000 -0.000003 0.000000 0.000000 -0.000003 0.000000 0.000000 0.000001 -0.000000 -0.000000 -0.000003 0.000000 0.000000 -0.000003 0.000000 0.000000 -0.000003 0.000000 0.000000 0.000001 -0.000000 -0.000000 0.000000 0.000000 0.000000 0.000000 0.000000 0.000000 0.000000 0.000000 0.000000 
-0.069426 60.049675 2.744708 2.303339 1.521873 -1.394804 0.000000 0.000000 -0.000000 -46.772067 2.171555 3.763987 82.196095 0.576080 -0.158615 -23.429977 0.398839 -0.424315 -0.000000 0.000000 -0.000000 -0.000003 0.000000 -0.000000 -50.645842 0.524822 0.434180 82.986853 -6.156113 -1.609082 -15.738813 -1.249205 6.520404 0.000002 -0.000000 0.000000 0.000002 0.000000 0.000000 16.622269 0.184912 2.811035 12.777591 0.110619 2.129166 12.775287 0.135826 2.118365 -2.937722 0.812082 -3.930142 2.525586 -1.006469 -1.622393 -0.000000 0.000000 -0.000000 -0.000000 0.000000 -0.000000 -0.000000 0.000000 -0.000000 -0.000000 0.000000 -0.000000 -0.000002 -0.000000 0.000000 -0.000000 0.000000 -0.000000 -0.000002 -0.000000 0.000000 -0.000000 0.000000 -0.000000 -0.000000 0.000000 -0.000000 8.094699 0.176552 3.610596 -28.228991 3.930823 -70.121106 0.000005 -33.514294 0.000026 16.466749 -12.931393 26.262199 1.760411 -9.404121 6.715283 -0.156005 5.044570 0.751471 -0.000000 0.000003 0.000003 1.835519 -4.261899 7.310946 0.441358 2.962699 -22.046946 0.000001 0.000003 -0.000001 0.363734 1.571109 1.183404 0.576211 3.366802 -26.255862 0.000001 -0.000000 0.000004 1.317598 13.864505 -9.701266 0.700139 2.571331 -23.530227 0.000000 0.000001 -0.000001 3.192915 23.591407 -23.467132 0.272663 2.130656 -23.232231 -0.000001 -0.000001 0.000003 0.000001 0.000000 -0.000001 9.173317 -3.090512 2.663587 -36.061783 -5.410232 60.183392 0.000010 34.318227 -0.000023 16.694435 13.426963 -40.410886 -13.500140 10.202695 6.085663 5.668040 -7.579857 -3.154204 0.000000 0.000001 0.000001 2.177961 13.630810 -5.152894 0.081251 -1.643581 8.468749 -0.000000 -0.000001 0.000002 -0.322158 -2.143189 9.135057 0.062594 -1.514901 6.928638 0.000001 0.000000 -0.000002 1.570220 -14.384100 10.976829 0.473623 -2.119668 18.470189 0.000001 0.000001 -0.000003 3.726511 -23.714717 21.915949 0.030292 -1.081860 12.529341 -0.000001 0.000000 -0.000001 0.000001 -0.000000 -0.000001 -0.000002 -0.000000 -0.000000 0.000000 -0.000000 -0.000000 -0.000002 -0.000000 -0.000000 -0.000002 -0.000000 -0.000000 -0.000002 -0.000000 -0.000000 0.000000 -0.000000 -0.000000 -0.000002 -0.000000 -0.000000 -0.000002 -0.000000 -0.000000 -0.000002 -0.000000 -0.000000 0.000000 -0.000000 -0.000000 0.000000 0.000000 -0.000000 0.000000 0.000000 -0.000000 0.000000 0.000000 -0.000000 
